ffmpeg started on 2016-11-27 at 21:27:29
Report written to "Output/NVENCh264/results/ffmpeg/crowd_run_2160p50llhp3000k.log"
Command line:
Tools/ffmpeg/ffmpeg -benchmark -y -i Input/y4m/crowd_run_2160p50.y4m -c:v h264_nvenc -preset llhp -b:v 3000k -an Output/NVENCh264/encoded/crowd_run_2160p50llhp3000k.mkv
ffmpeg version N-82227-gdb23fde Copyright (c) 2000-2016 the FFmpeg developers
  built with gcc 5.4.0 (Ubuntu 5.4.0-6ubuntu1~16.04.2) 20160609
  configuration: --prefix=/home/jaroslav/ffmpeg_build --pkg-config-flags=--static --extra-cflags=-I/home/jaroslav/ffmpeg_build/include --extra-ldflags=-L/home/jaroslav/ffmpeg_build/lib --bindir=/home/jaroslav/bin --enable-gpl --enable-libass --enable-libfdk-aac --enable-libfreetype --enable-libmp3lame --enable-libopus --enable-libtheora --enable-libvorbis --enable-libvpx --enable-libx264 --enable-libx265 --enable-nvenc --enable-libmfx --enable-libxvid --enable-libgsm --enable-libopencore-amrnb --enable-version3 --enable-nonfree
  libavutil      55. 35.100 / 55. 35.100
  libavcodec     57. 66.101 / 57. 66.101
  libavformat    57. 57.100 / 57. 57.100
  libavdevice    57.  2.100 / 57.  2.100
  libavfilter     6. 66.100 /  6. 66.100
  libswscale      4.  3.100 /  4.  3.100
  libswresample   2.  4.100 /  2.  4.100
  libpostproc    54.  2.100 / 54.  2.100
Input #0, yuv4mpegpipe, from 'Input/y4m/crowd_run_2160p50.y4m':
  Duration: 00:00:10.00, start: 0.000000, bitrate: 4976642 kb/s
    Stream #0:0: Video: rawvideo (I420 / 0x30323449), yuv420p(progressive), 3840x2160, SAR 1:1 DAR 16:9, 50 fps, 50 tbr, 50 tbn, 50 tbc
[h264_nvenc @ 0x2f511c0] The variable bitrate rate-control requires the 'qmin' and/or 'qmax' option set.
Output #0, matroska, to 'Output/NVENCh264/encoded/crowd_run_2160p50llhp3000k.mkv':
  Metadata:
    encoder         : Lavf57.57.100
    Stream #0:0: Video: h264 (h264_nvenc) (Main) (H264 / 0x34363248), yuv420p, 3840x2160 [SAR 1:1 DAR 16:9], q=-1--1, 3000 kb/s, 50 fps, 1k tbn, 50 tbc
    Metadata:
      encoder         : Lavc57.66.101 h264_nvenc
    Side data:
      cpb: bitrate max/min/avg: 0/0/3000000 buffer size: 6000000 vbv_delay: -1
Stream mapping:
  Stream #0:0 -> #0:0 (rawvideo (native) -> h264 (h264_nvenc))
Press [q] to stop, [?] for help
frame=   14 fps=0.0 q=0.0 size=       0kB time=00:00:00.00 bitrate=N/A speed=   0x    frame=   30 fps= 29 q=0.0 size=       0kB time=00:00:00.00 bitrate=N/A speed=   0x    frame=   47 fps= 30 q=49.0 size=       1kB time=00:00:00.32 bitrate=  18.6kbits/s speed=0.208x    frame=   65 fps= 31 q=49.0 size=       1kB time=00:00:00.68 bitrate=   8.8kbits/s speed=0.33x    frame=   83 fps= 32 q=49.0 size=       1kB time=00:00:01.04 bitrate=   5.7kbits/s speed=0.403x    frame=  101 fps= 33 q=49.0 size=       1kB time=00:00:01.40 bitrate=   4.3kbits/s speed=0.452x    frame=  119 fps= 33 q=49.0 size=       1kB time=00:00:01.76 bitrate=   3.4kbits/s speed=0.486x    frame=  137 fps= 24 q=49.0 size=       1kB time=00:00:02.12 bitrate=   2.8kbits/s speed=0.377x    frame=  138 fps= 15 q=49.0 size=       1kB time=00:00:02.14 bitrate=   2.8kbits/s speed=0.228x    frame=  139 fps= 12 q=49.0 size=       1kB time=00:00:02.16 bitrate=   2.8kbits/s speed=0.184x    frame=  157 fps= 13 q=49.0 size=       1kB time=00:00:02.52 bitrate=   2.4kbits/s speed=0.206x    frame=  174 fps= 14 q=49.0 size=       1kB time=00:00:02.86 bitrate=   2.1kbits/s speed=0.224x    frame=  191 fps= 14 q=49.0 size=       1kB time=00:00:03.20 bitrate=   1.9kbits/s speed=0.241x    frame=  208 fps= 15 q=49.0 size=       1kB time=00:00:03.54 bitrate=   1.7kbits/s speed=0.257x    frame=  225 fps= 16 q=49.0 size=       1kB time=00:00:03.88 bitrate=   1.5kbits/s speed=0.272x    frame=  242 fps= 16 q=49.0 size=       1kB time=00:00:04.22 bitrate=   1.4kbits/s speed=0.286x    frame=  260 fps= 17 q=49.0 size=       1kB time=00:00:04.58 bitrate=   1.3kbits/s speed=0.299x    frame=  278 fps= 18 q=49.0 size=       1kB time=00:00:04.94 bitrate=   1.2kbits/s speed=0.312x    frame=  295 fps= 18 q=49.0 size=    3090kB time=00:00:05.28 bitrate=4793.4kbits/s speed=0.324x    frame=  313 fps= 19 q=49.0 size=    3090kB time=00:00:05.64 bitrate=4487.5kbits/s speed=0.335x    frame=  331 fps= 19 q=49.0 size=    3090kB time=00:00:06.00 bitrate=4218.3kbits/s speed=0.346x    frame=  349 fps= 20 q=49.0 size=    3090kB time=00:00:06.36 bitrate=3979.6kbits/s speed=0.356x    frame=  367 fps= 20 q=49.0 size=    3090kB time=00:00:06.72 bitrate=3766.4kbits/s speed=0.365x    frame=  385 fps= 20 q=49.0 size=    3090kB time=00:00:07.08 bitrate=3574.9kbits/s speed=0.374x    frame=  403 fps= 21 q=49.0 size=    3090kB time=00:00:07.44 bitrate=3402.0kbits/s speed=0.383x    frame=  421 fps= 21 q=49.0 size=    3090kB time=00:00:07.80 bitrate=3245.0kbits/s speed=0.391x    frame=  430 fps= 21 q=49.0 size=    3090kB time=00:00:07.98 bitrate=3171.8kbits/s speed=0.39x    frame=  448 fps= 21 q=49.0 size=    3090kB time=00:00:08.34 bitrate=3034.9kbits/s speed=0.398x    frame=  466 fps= 22 q=49.0 size=    3090kB time=00:00:08.70 bitrate=2909.3kbits/s speed=0.405x    frame=  484 fps= 22 q=49.0 size=    3090kB time=00:00:09.06 bitrate=2793.7kbits/s speed=0.412x    frame=  500 fps= 22 q=49.0 Lsize=    6339kB time=00:00:09.98 bitrate=5203.2kbits/s speed=0.443x    
video:6335kB audio:0kB subtitle:0kB other streams:0kB global headers:0kB muxing overhead: 0.067085%
bench: utime=1.068s
bench: maxrss=1396932kB
